M48
; DRILL file {KiCad (6.0.6)} date Mon Sep 26 12:00:52 2022
; FORMAT={-:-/ absolute / metric / decimal}
; #@! TF.CreationDate,2022-09-26T12:00:52+02:00
; #@! TF.GenerationSoftware,Kicad,Pcbnew,(6.0.6)
; #@! TF.FileFunction,Plated,1,2,PTH
FMAT,2
METRIC
; #@! TA.AperFunction,Plated,PTH,ViaDrill
T1C0.400
; #@! TA.AperFunction,Plated,PTH,ComponentDrill
T2C0.762
; #@! TA.AperFunction,Plated,PTH,ComponentDrill
T3C0.800
; #@! TA.AperFunction,Plated,PTH,ComponentDrill
T4C1.000
; #@! TA.AperFunction,Plated,PTH,ComponentDrill
T5C1.100
; #@! TA.AperFunction,Plated,PTH,ComponentDrill
T6C1.300
%
G90
G05
T1
X174.048Y110.733
X175.015Y111.958
X175.469Y77.14
X176.067Y74.103
X177.8Y101.6
X182.194Y97.516
X185.569Y71.694
X186.056Y103.819
X191.186Y98.899
T2
X153.67Y68.58
X153.67Y71.12
X153.67Y73.66
X153.67Y76.2
X153.67Y78.74
X153.67Y81.28
X153.67Y83.82
X153.67Y86.36
X153.67Y88.9
X153.67Y91.44
X153.67Y93.98
X153.67Y96.52
X153.67Y99.06
X153.67Y101.6
X153.67Y104.14
X153.67Y106.68
X153.67Y109.22
X153.67Y111.76
X153.67Y114.3
X153.67Y116.84
X160.02Y116.61
X162.56Y116.61
X165.1Y116.61
X171.45Y68.58
X171.45Y71.12
X171.45Y73.66
X171.45Y76.2
X171.45Y78.74
X171.45Y81.28
X171.45Y83.82
X171.45Y86.36
X171.45Y88.9
X171.45Y91.44
X171.45Y93.98
X171.45Y96.52
X171.45Y99.06
X171.45Y101.6
X171.45Y104.14
X171.45Y106.68
X171.45Y109.22
X171.45Y111.76
X171.45Y114.3
X171.45Y116.84
T3
X120.775Y79.244
X120.775Y81.744
X120.812Y74.346
X120.812Y76.846
T4
X107.554Y76.791
X107.554Y79.331
X118.615Y68.763
X123.615Y68.763
X124.222Y100.841
X124.222Y115.081
X126.762Y100.841
X126.762Y115.081
X129.302Y100.841
X129.302Y115.081
X131.842Y100.841
X131.842Y115.081
X134.382Y100.841
X134.382Y115.081
X136.057Y70.718
X136.922Y100.841
X136.922Y115.081
X137.665Y79.01
X138.597Y70.718
X139.462Y100.841
X139.462Y115.081
X140.205Y79.01
X141.137Y70.718
X142.002Y100.841
X142.002Y115.081
X142.745Y79.01
X143.677Y70.718
X180.48Y101.25
X180.48Y103.79
X180.48Y106.33
X180.48Y108.87
X182.35Y77.569
X182.35Y81.446
X182.35Y85.323
X182.35Y89.2
X182.35Y93.077
X183.02Y101.25
X183.02Y103.79
X183.02Y106.33
X183.02Y108.87
X184.89Y77.569
X184.89Y81.446
X184.89Y85.323
X184.89Y89.2
X184.89Y93.077
X187.43Y77.569
X187.43Y81.446
X187.43Y85.323
X187.43Y89.2
X187.43Y93.077
T5
X115.065Y75.346
X115.065Y77.886
X115.065Y80.426
X118.911Y89.665
X118.911Y92.205
X118.911Y94.745
T6
X107.5Y89.53
X107.5Y94.61
T0
M30
