%TF.GenerationSoftware,KiCad,Pcbnew,(6.0.6)*%
%TF.CreationDate,2022-09-26T11:51:03+02:00*%
%TF.ProjectId,pico_w_rover,7069636f-5f77-45f7-926f-7665722e6b69,rev?*%
%TF.SameCoordinates,Original*%
%TF.FileFunction,Copper,L1,Top*%
%TF.FilePolarity,Positive*%
%FSLAX46Y46*%
G04 Gerber Fmt 4.6, Leading zero omitted, Abs format (unit mm)*
G04 Created by KiCad (PCBNEW (6.0.6)) date 2022-09-26 11:51:03*
%MOMM*%
%LPD*%
G01*
G04 APERTURE LIST*
%TA.AperFunction,ComponentPad*%
%ADD10R,1.700000X1.700000*%
%TD*%
%TA.AperFunction,ComponentPad*%
%ADD11O,1.700000X1.700000*%
%TD*%
%TA.AperFunction,ComponentPad*%
%ADD12C,1.600000*%
%TD*%
%TA.AperFunction,ComponentPad*%
%ADD13C,2.000000*%
%TD*%
%TA.AperFunction,ComponentPad*%
%ADD14O,2.300000X1.524000*%
%TD*%
%TA.AperFunction,ComponentPad*%
%ADD15O,1.524000X2.300000*%
%TD*%
%TA.AperFunction,ComponentPad*%
%ADD16R,2.000000X1.905000*%
%TD*%
%TA.AperFunction,ComponentPad*%
%ADD17O,2.000000X1.905000*%
%TD*%
%TA.AperFunction,ComponentPad*%
%ADD18R,2.600000X2.600000*%
%TD*%
%TA.AperFunction,ComponentPad*%
%ADD19C,2.600000*%
%TD*%
%TA.AperFunction,ViaPad*%
%ADD20C,0.800000*%
%TD*%
%TA.AperFunction,Conductor*%
%ADD21C,0.508000*%
%TD*%
%TA.AperFunction,Conductor*%
%ADD22C,0.762000*%
%TD*%
G04 APERTURE END LIST*
D10*
%TO.P,S2,1,Pin_1*%
%TO.N,S2*%
X182350066Y-89200185D03*
D11*
%TO.P,S2,2,Pin_2*%
%TO.N,+5V*%
X184890066Y-89200185D03*
%TO.P,S2,3,Pin_3*%
%TO.N,GND*%
X187430066Y-89200185D03*
%TD*%
D10*
%TO.P,S6,1,Pin_1*%
%TO.N,S6*%
X142744794Y-79009677D03*
D11*
%TO.P,S6,2,Pin_2*%
%TO.N,+5V*%
X140204794Y-79009677D03*
%TO.P,S6,3,Pin_3*%
%TO.N,GND*%
X137664794Y-79009677D03*
%TD*%
D10*
%TO.P,NRF24L1,1,Pin_1*%
%TO.N,MISO*%
X180480000Y-108870000D03*
D11*
%TO.P,NRF24L1,2,Pin_2*%
%TO.N,IRQ*%
X183020000Y-108870000D03*
%TO.P,NRF24L1,3,Pin_3*%
%TO.N,SCK*%
X180480000Y-106330000D03*
%TO.P,NRF24L1,4,Pin_4*%
%TO.N,MOSI*%
X183020000Y-106330000D03*
%TO.P,NRF24L1,5,Pin_5*%
%TO.N,CE*%
X180480000Y-103790000D03*
%TO.P,NRF24L1,6,Pin_6*%
%TO.N,CNS*%
X183020000Y-103790000D03*
%TO.P,NRF24L1,7,Pin_7*%
%TO.N,GND*%
X180480000Y-101250000D03*
%TO.P,NRF24L1,8,Pin_8*%
%TO.N,+3V3*%
X183020000Y-101250000D03*
%TD*%
D10*
%TO.P,DRV2,1,Pin_1*%
%TO.N,GND*%
X142001709Y-115081334D03*
D11*
%TO.P,DRV2,2,Pin_2*%
%TO.N,+5V*%
X139461709Y-115081334D03*
%TO.P,DRV2,3,Pin_3*%
%TO.N,DRV2_ENB*%
X136921709Y-115081334D03*
%TO.P,DRV2,4,Pin_4*%
%TO.N,DRV2_IN4*%
X134381709Y-115081334D03*
%TO.P,DRV2,5,Pin_5*%
%TO.N,DRV2_IN3*%
X131841709Y-115081334D03*
%TO.P,DRV2,6,Pin_6*%
%TO.N,DRV2_IN2*%
X129301709Y-115081334D03*
%TO.P,DRV2,7,Pin_7*%
%TO.N,DRV2_IN1*%
X126761709Y-115081334D03*
%TO.P,DRV2,8,Pin_8*%
%TO.N,DRV2_ENA*%
X124221709Y-115081334D03*
%TD*%
D12*
%TO.P,C2,1*%
%TO.N,+12V*%
X120774938Y-81744299D03*
%TO.P,C2,2*%
%TO.N,GND*%
X120774938Y-79244299D03*
%TD*%
D10*
%TO.P,S5,1,Pin_1*%
%TO.N,S5*%
X182350066Y-77568768D03*
D11*
%TO.P,S5,2,Pin_2*%
%TO.N,+5V*%
X184890066Y-77568768D03*
%TO.P,S5,3,Pin_3*%
%TO.N,GND*%
X187430066Y-77568768D03*
%TD*%
D10*
%TO.P,S4,1,Pin_1*%
%TO.N,S4*%
X182350066Y-81445907D03*
D11*
%TO.P,S4,2,Pin_2*%
%TO.N,+5V*%
X184890066Y-81445907D03*
%TO.P,S4,3,Pin_3*%
%TO.N,GND*%
X187430066Y-81445907D03*
%TD*%
D13*
%TO.P,C1,1*%
%TO.N,+5V*%
X123615284Y-68762940D03*
%TO.P,C1,2*%
%TO.N,GND*%
X118615284Y-68762940D03*
%TD*%
D10*
%TO.P,S3,1,Pin_1*%
%TO.N,S3*%
X182350066Y-85323046D03*
D11*
%TO.P,S3,2,Pin_2*%
%TO.N,+5V*%
X184890066Y-85323046D03*
%TO.P,S3,3,Pin_3*%
%TO.N,GND*%
X187430066Y-85323046D03*
%TD*%
D10*
%TO.P,PWR1,1,Pin_1*%
%TO.N,+12V*%
X107554470Y-79330594D03*
D11*
%TO.P,PWR1,2,Pin_2*%
%TO.N,GND*%
X107554470Y-76790594D03*
%TD*%
D10*
%TO.P,DRV1,1,Pin_1*%
%TO.N,GND*%
X142001709Y-100841334D03*
D11*
%TO.P,DRV1,2,Pin_2*%
%TO.N,+5V*%
X139461709Y-100841334D03*
%TO.P,DRV1,3,Pin_3*%
%TO.N,DRV1_ENB*%
X136921709Y-100841334D03*
%TO.P,DRV1,4,Pin_4*%
%TO.N,DRV1_IN4*%
X134381709Y-100841334D03*
%TO.P,DRV1,5,Pin_5*%
%TO.N,DRV1_IN3*%
X131841709Y-100841334D03*
%TO.P,DRV1,6,Pin_6*%
%TO.N,DRV1_IN2*%
X129301709Y-100841334D03*
%TO.P,DRV1,7,Pin_7*%
%TO.N,DRV1_IN1*%
X126761709Y-100841334D03*
%TO.P,DRV1,8,Pin_8*%
%TO.N,DRV1_ENA*%
X124221709Y-100841334D03*
%TD*%
D10*
%TO.P,HCSR4,1,Pin_1*%
%TO.N,+5V*%
X143676567Y-70718025D03*
D11*
%TO.P,HCSR4,2,Pin_2*%
%TO.N,TRIG*%
X141136567Y-70718025D03*
%TO.P,HCSR4,3,Pin_3*%
%TO.N,ECHO*%
X138596567Y-70718025D03*
%TO.P,HCSR4,4,Pin_4*%
%TO.N,GND*%
X136056567Y-70718025D03*
%TD*%
D10*
%TO.P,S1,1,Pin_1*%
%TO.N,S1*%
X182350066Y-93077324D03*
D11*
%TO.P,S1,2,Pin_2*%
%TO.N,+5V*%
X184890066Y-93077324D03*
%TO.P,S1,3,Pin_3*%
%TO.N,GND*%
X187430066Y-93077324D03*
%TD*%
D14*
%TO.P,U1,1,GP0*%
%TO.N,TRIG*%
X153670000Y-68580000D03*
%TO.P,U1,2,GP1*%
%TO.N,ECHO*%
X153670000Y-71120000D03*
%TO.P,U1,3,GND*%
%TO.N,GND*%
X153670000Y-73660000D03*
%TO.P,U1,4,GP2*%
%TO.N,S6*%
X153670000Y-76200000D03*
%TO.P,U1,5,GP3*%
%TO.N,HP1*%
X153670000Y-78740000D03*
%TO.P,U1,6,GP4*%
%TO.N,DRV1_ENA*%
X153670000Y-81280000D03*
%TO.P,U1,7,GP5*%
%TO.N,DRV1_IN1*%
X153670000Y-83820000D03*
%TO.P,U1,8,GND*%
%TO.N,GND*%
X153670000Y-86360000D03*
%TO.P,U1,9,GP6*%
%TO.N,DRV1_IN2*%
X153670000Y-88900000D03*
%TO.P,U1,10,GP7*%
%TO.N,DRV1_IN3*%
X153670000Y-91440000D03*
%TO.P,U1,11,GP8*%
%TO.N,DRV1_IN4*%
X153670000Y-93980000D03*
%TO.P,U1,12,GP9*%
%TO.N,DRV1_ENB*%
X153670000Y-96520000D03*
%TO.P,U1,13,GND*%
%TO.N,GND*%
X153670000Y-99060000D03*
%TO.P,U1,14,GP10*%
%TO.N,DRV2_ENA*%
X153670000Y-101600000D03*
%TO.P,U1,15,GP11*%
%TO.N,DRV2_IN1*%
X153670000Y-104140000D03*
%TO.P,U1,16,GP12*%
%TO.N,DRV2_IN2*%
X153670000Y-106680000D03*
%TO.P,U1,17,GP13*%
%TO.N,DRV2_IN3*%
X153670000Y-109220000D03*
%TO.P,U1,18,GND*%
%TO.N,GND*%
X153670000Y-111760000D03*
%TO.P,U1,19,GP14*%
%TO.N,DRV2_IN4*%
X153670000Y-114300000D03*
%TO.P,U1,20,GP15*%
%TO.N,DRV2_ENB*%
X153670000Y-116840000D03*
%TO.P,U1,21,GP16*%
%TO.N,MISO*%
X171450000Y-116840000D03*
%TO.P,U1,22,GP17*%
%TO.N,CNS*%
X171450000Y-114300000D03*
%TO.P,U1,23,GND*%
%TO.N,GND*%
X171450000Y-111760000D03*
%TO.P,U1,24,GP18*%
%TO.N,SCK*%
X171450000Y-109220000D03*
%TO.P,U1,25,GP19*%
%TO.N,MOSI*%
X171450000Y-106680000D03*
%TO.P,U1,26,GP20*%
%TO.N,CE*%
X171450000Y-104140000D03*
%TO.P,U1,27,GP21*%
%TO.N,S1*%
X171450000Y-101600000D03*
%TO.P,U1,28,GND*%
%TO.N,GND*%
X171450000Y-99060000D03*
%TO.P,U1,29,GP22*%
%TO.N,S2*%
X171450000Y-96520000D03*
%TO.P,U1,30,RUN*%
%TO.N,unconnected-(U1-Pad30)*%
X171450000Y-93980000D03*
%TO.P,U1,31,GP26*%
%TO.N,S3*%
X171450000Y-91440000D03*
%TO.P,U1,32,GP27*%
%TO.N,S4*%
X171450000Y-88900000D03*
%TO.P,U1,33,GND*%
%TO.N,GND*%
X171450000Y-86360000D03*
%TO.P,U1,34,GP28*%
%TO.N,S5*%
X171450000Y-83820000D03*
%TO.P,U1,35,ADC_VREF*%
%TO.N,unconnected-(U1-Pad35)*%
X171450000Y-81280000D03*
%TO.P,U1,36,3V3(OUT)*%
%TO.N,+3V3*%
X171450000Y-78740000D03*
%TO.P,U1,37,3V3_EN*%
%TO.N,unconnected-(U1-Pad37)*%
X171450000Y-76200000D03*
%TO.P,U1,38,GND*%
%TO.N,GND*%
X171450000Y-73660000D03*
%TO.P,U1,39,VSYS*%
%TO.N,+5V*%
X171450000Y-71120000D03*
%TO.P,U1,40,VBUS*%
%TO.N,unconnected-(U1-Pad40)*%
X171450000Y-68580000D03*
D15*
%TO.P,U1,41,SWCLK*%
%TO.N,unconnected-(U1-Pad41)*%
X160020000Y-116610000D03*
%TO.P,U1,42,GND*%
%TO.N,unconnected-(U1-Pad42)*%
X162560000Y-116610000D03*
%TO.P,U1,43,SWDIO*%
%TO.N,unconnected-(U1-Pad43)*%
X165100000Y-116610000D03*
%TD*%
D16*
%TO.P,Q1,1,G*%
%TO.N,Net-(Q1-Pad1)*%
X118910864Y-94744963D03*
D17*
%TO.P,Q1,2,D*%
%TO.N,Net-(J1-Pad2)*%
X118910864Y-92204963D03*
%TO.P,Q1,3,S*%
%TO.N,GND*%
X118910864Y-89664963D03*
%TD*%
D16*
%TO.P,U2,1,IN*%
%TO.N,+12V*%
X115065210Y-80425927D03*
D17*
%TO.P,U2,2,GND*%
%TO.N,GND*%
X115065210Y-77885927D03*
%TO.P,U2,3,OUT*%
%TO.N,+5V*%
X115065210Y-75345927D03*
%TD*%
D18*
%TO.P,J1,1,Pin_1*%
%TO.N,+12V*%
X107500000Y-89530000D03*
D19*
%TO.P,J1,2,Pin_2*%
%TO.N,Net-(J1-Pad2)*%
X107500000Y-94610000D03*
%TD*%
D12*
%TO.P,C3,1*%
%TO.N,+5V*%
X120811630Y-74346299D03*
%TO.P,C3,2*%
%TO.N,GND*%
X120811630Y-76846299D03*
%TD*%
D20*
%TO.N,GND*%
X191185775Y-98899415D03*
X174048419Y-110733473D03*
X185569418Y-71694277D03*
X177800000Y-101600000D03*
X176067250Y-74103277D03*
%TO.N,CNS*%
X186055890Y-103819221D03*
X175015464Y-111958271D03*
%TO.N,+3V3*%
X182194376Y-97515794D03*
X175469250Y-77139667D03*
%TD*%
D21*
%TO.N,GND*%
X191185775Y-98899415D02*
X179509903Y-98899415D01*
X177800000Y-101600000D02*
X177800000Y-106981892D01*
X177800000Y-100609318D02*
X177800000Y-101600000D01*
D22*
X183160418Y-74103277D02*
X185569418Y-71694277D01*
D21*
X177800000Y-106981892D02*
X174048419Y-110733473D01*
D22*
X176067250Y-74103277D02*
X183160418Y-74103277D01*
D21*
X179509903Y-98899415D02*
X177800000Y-100609318D01*
D22*
%TO.N,+12V*%
X107500000Y-79385064D02*
X107554470Y-79330594D01*
D21*
%TO.N,CE*%
X180130000Y-104140000D02*
X180480000Y-103790000D01*
X171800000Y-103790000D02*
X171450000Y-104140000D01*
D22*
%TO.N,MISO*%
X180480000Y-109080000D02*
X180480000Y-108870000D01*
%TO.N,CNS*%
X184093398Y-111958271D02*
X175015464Y-111958271D01*
X183049221Y-103819221D02*
X183020000Y-103790000D01*
X186055890Y-109995779D02*
X184093398Y-111958271D01*
X186055890Y-103819221D02*
X186055890Y-109995779D01*
D21*
%TO.N,+3V3*%
X182194376Y-97515794D02*
X178547530Y-93868948D01*
X178547530Y-80217947D02*
X175469250Y-77139667D01*
X178547530Y-93868948D02*
X178547530Y-80217947D01*
%TD*%
M02*
